<?xml version="1.0" encoding="utf-8"?>
<!-- Generator: Adobe Illustrator 23.0.6, SVG Export Plug-In . SVG Version: 6.00 Build 0)  -->
<svg version="1.1" id="Layer_1" xmlns="http://www.w3.org/2000/svg" xmlns:xlink="http://www.w3.org/1999/xlink" x="0px" y="0px"
	 viewBox="0 0 264 280" style="enable-background:new 0 0 264 280;" xml:space="preserve">
<style type="text/css">
	.st0{fill:#231815;}
	.st1{fill:#FFFFFF;}
	.st2{fill:#5BC1D8;}
</style>
<desc>Created with getavataaars.com</desc>
<g>
	<path class="st0" d="M203.6,115c0,6.9-5.6,12.4-12.4,12.4c-6.9,0-12.4-5.6-12.4-12.4c0-6.9,5.6-12.4,12.4-12.4
		C198.1,102.5,203.6,108.1,203.6,115z"/>
	<g>
		<g>
			<path class="st1" d="M156,42.7c0-4.8-4-8.8-8.8-8.8H75.1c-20.7,0-37.6,16.9-37.6,37.6v12.9c0,4.8-2.1,12.2-4.7,16.3l-14.5,23
				c-2.6,4.1-0.7,7.5,4.1,7.5l6.2,0c4.8,0,8.8,4,8.8,8.8v12.4c0,20.7,16.9,37.6,37.6,37.6h72.1c4.8,0,8.8-4,8.8-8.8V42.7z"/>
		</g>
		<g>
			<path class="st1" d="M147.2,196.2H75.1c-24.2,0-43.8-19.7-43.8-43.8V140c0-1.4-1.2-2.6-2.6-2.6l-6.2,0c-4.6,0-8.4-2-10.3-5.4
				c-1.9-3.4-1.6-7.7,0.9-11.6l14.5-23c2-3.1,3.7-9.3,3.7-13V71.5c0-24.2,19.7-43.8,43.8-43.8h72.1c8.3,0,15,6.7,15,15v138.5
				C162.2,189.5,155.4,196.2,147.2,196.2z M24.8,124.9l3.8,0c8.3,0,15,6.8,15,15v12.4c0,17.3,14.1,31.4,31.4,31.4h72.1
				c1.4,0,2.6-1.2,2.6-2.6V42.7c0-1.4-1.2-2.6-2.6-2.6H75.1c-17.3,0-31.4,14.1-31.4,31.4v12.9c0,6-2.4,14.4-5.6,19.6L24.8,124.9z"/>
		</g>
	</g>
	<g>
		<path class="st2" d="M62.3,87c0,6.9,5.6,12.4,12.4,12.4c6.9,0,12.4-5.6,12.4-12.4c0-6.9-5.6-12.4-12.4-12.4
			C67.9,74.6,62.3,80.1,62.3,87z"/>
	</g>
	<g>
		<path class="st0" d="M190.9,224.2h-72.1c-8.3,0-15-6.7-15-15V70.7c0-8.3,6.7-15,15-15h72.1c24.2,0,43.8,19.7,43.8,43.8v12.9
			c0,3.7,1.8,9.8,3.7,13l14.5,23c2.5,3.9,2.8,8.1,0.9,11.6c-1.9,3.4-5.6,5.4-10.3,5.4l-6.2,0c-1.4,0-2.6,1.2-2.6,2.6v12.4
			C234.7,204.5,215.1,224.2,190.9,224.2z M118.8,68.1c-1.4,0-2.6,1.2-2.6,2.6v138.5c0,1.4,1.2,2.6,2.6,2.6h72.1
			c17.3,0,31.4-14.1,31.4-31.4v-12.4c0-8.3,6.7-15,15-15l3.8,0l-13.2-21c-3.2-5.1-5.6-13.5-5.6-19.6V99.5
			c0-17.3-14.1-31.4-31.4-31.4H118.8z"/>
	</g>
</g>
</svg>
